<?xml version="1.0" encoding="UTF-8" standalone="no"?>
<!-- Created with Inkscape (http://www.inkscape.org/) -->

<svg
   width="170.8255"
   height="156.76981"
   viewBox="30 30 128.11913 117.57735"
   version="1.1"
   xmlns="http://www.w3.org/2000/svg"
   xmlns:svg="http://www.w3.org/2000/svg">
  <path
     fill="#a3a3a3"
     stroke="none"
     d="m 62.25002,82.669955 5.943074,-6.12748 -27.421742,-28.065092 c -2.799168,-2.954706 -2.81994,-10.042974 5.352557,-9.746091 H 140.1429 c 6.02096,-0.661822 9.68822,5.075198 5.35256,9.746091 l -69.520954,71.850567 40.094064,-0.32932 -11.89765,-11.76707 c -2.1269,-2.19285 -0.19211,-4.08296 0.33945,-4.62965 L 153.26348,52.020205 C 160.44575,42.342318 154.02662,30.281824 142.91536,30 l -99.563905,1e-6 C 27.757392,31.022146 28.077598,47.07428 33.003332,52.020205 Z"
     id="path869" />
  <path
     fill="#a3a3a3"
     stroke="none"
     d="m 69.379337,57.31695 h 42.776833 l -69.946501,69.94644 c -5.094855,5.09485 -5.459816,11.70328 4.269527,11.70328 h 95.353754 c 9.18854,-0.54075 7.83111,-7.22313 3.31312,-11.70328 l -25.24739,-25.66868 6.02987,-6.029901 25.56522,25.792331 c 11.65162,11.75513 7.41816,26.16791 -8.64527,26.16791 l -100.241727,0.0523 c -11.868179,0 -18.244178,-14.81922 -4.822282,-28.05648 L 86.714389,70.591005 Z"
     id="path22367" />
</svg>
